<svg width="15" height="29" viewBox="0 0 15 29" fill="none" xmlns="http://www.w3.org/2000/svg">
<mask id="path-1-inside-1_1338_395" fill="white">
<path fill-rule="evenodd" clip-rule="evenodd" d="M3.05176e-05 28.5733V7.62939e-05H4.02795L4.02586 0.0886292L14.793 14.0151L3.53743 28.5733H3.05176e-05Z"/>
</mask>
<path fill-rule="evenodd" clip-rule="evenodd" d="M3.05176e-05 28.5733V7.62939e-05H4.02795L4.02586 0.0886292L14.793 14.0151L3.53743 28.5733H3.05176e-05Z" fill="white"/>
<path d="M3.05176e-05 7.62939e-05V-2.99992H-2.99997V7.62939e-05H3.05176e-05ZM3.05176e-05 28.5733H-2.99997V31.5733H3.05176e-05V28.5733ZM4.02795 7.62939e-05L7.02712 0.0706511L7.09937 -2.99992L4.02795 -2.99992V7.62939e-05ZM4.02586 0.0886292L1.02669 0.0180544L1.00166 1.0818L1.65249 1.92359L4.02586 0.0886292ZM14.793 14.0151L17.1664 15.85L18.585 14.0151L17.1664 12.1801L14.793 14.0151ZM3.53743 28.5733V31.5733H5.01007L5.91081 30.4082L3.53743 28.5733ZM-2.99997 7.62939e-05V28.5733H3.00003V7.62939e-05H-2.99997ZM4.02795 -2.99992H3.05176e-05V3.00008H4.02795V-2.99992ZM7.02503 0.159204L7.02712 0.0706511L1.02878 -0.0704985L1.02669 0.0180544L7.02503 0.159204ZM17.1664 12.1801L6.39924 -1.74633L1.65249 1.92359L12.4196 15.85L17.1664 12.1801ZM5.91081 30.4082L17.1664 15.85L12.4196 12.1801L1.16405 26.7383L5.91081 30.4082ZM3.05176e-05 31.5733H3.53743V25.5733H3.05176e-05V31.5733Z" fill="#C1272D" mask="url(#path-1-inside-1_1338_395)"/>
<path d="M3.53035 28.5732L4.00558 0H0V28.5732H3.53035Z" fill="white"/>
</svg>
